<?xml version="1.0" encoding="UTF-8" standalone="no"?>
<!DOCTYPE svg PUBLIC "-//W3C//DTD SVG 1.1//EN" "http://www.w3.org/Graphics/SVG/1.1/DTD/svg11.dtd">
<svg width="841,92pt" height="595,2pt" viewBox="0 0 841.92 595.2" overflow="visible" version="1.1" xmlns="http://www.w3.org/2000/svg">
  <text x="318.189267384802" y="422.356214357667" fill="#008400" font-family="osifont" text-anchor="end" font-size="23.6901683807373">SlideShow</text>
  <text x="616.250292152891" y="360.398554729789" fill="#C8A700" font-family="osifont" text-anchor="middle" font-size="29.6127109527588">Entity</text>
  <text x="616.365966809602" y="409.675958488939" fill="#C8A700" font-family="osifont" text-anchor="middle" font-size="29.6127109527588">Shape</text>
  <text x="616.250292152891" y="458.953362248088" fill="#C8A700" font-family="osifont" text-anchor="middle" font-size="29.6127109527588">Geometry</text>
  <text x="506.72952717833"  y="76.7875246547265" fill="#693484" font-family="osifont" text-anchor="middle" font-size="35.5352554321289">Area</text>
  <text x="317.819108483325" y="506.985297422648" fill="#840000" font-family="osifont" text-anchor="end" font-size="23.6901683807373">SideMenu</text>
  <text x="130.367309948926" y="93.4312352183966" fill="#000000" font-family="osifont" text-anchor="middle" font-size="23.6901683807373">Panel</text>
  <text x="130.367309948926" y="330.420844902892" fill="#000000" font-family="osifont" text-anchor="middle" font-size="23.6901683807373">Panel</text>
  <path d="M455.6982,234.9115 C455.9405,225.7889 451.8029,214.8141 444.2502,207.2567 C436.6973,199.6994 425.7292,195.5593 416.6122,195.8018 C407.4951,195.5593 396.5271,199.6994 388.9742,207.2567 C381.4214,214.8141 377.2838,225.7889 377.5262,234.9115 C377.2838,244.034 381.4214,255.0088 388.9742,262.5662 C396.5271,270.1235 407.4951,274.2635 416.6122,274.0211 C425.7292,274.2635 436.6973,270.1235 444.2502,262.5662 C451.8029,255.0088 455.9405,244.034 455.6982,234.9115 z" stroke="#C8A700" stroke-width="1.44" fill-opacity="0" />
  <path d="M582.1526,213.4395 C582.4664,201.6338 577.1118,187.4313 567.3376,177.651 C557.5634,167.8709 543.3694,162.5132 531.5709,162.827 C519.7723,162.5132 505.5784,167.8709 495.8041,177.651 C486.0299,187.4313 480.6754,201.6338 480.9891,213.4395 C480.6754,225.2451 486.0299,239.4478 495.8041,249.2279 C505.5784,259.008 519.7723,264.3658 531.5709,264.0519 C543.3694,264.3658 557.5634,259.008 567.3376,249.2279 C577.1118,239.4478 582.4664,225.2451 582.1526,213.4395 z" stroke="#C8A700" stroke-width="1.44" fill-opacity="0" />
  <path d="M523.1406,328.4678 C523.4304,317.5565 518.4816,304.4298 509.4478,295.3907 C500.4141,286.3514 487.2953,281.3996 476.3907,281.6896 C465.486,281.3996 452.3673,286.3514 443.3335,295.3907 C434.2997,304.4298 429.351,317.5565 429.6408,328.4678 C429.351,339.3791 434.2997,352.5057 443.3335,361.545 C452.3673,370.5842 465.486,375.5361 476.3907,375.246 C487.2953,375.5361 500.4141,370.5842 509.4478,361.545 C518.4816,352.5057 523.4304,339.3791 523.1406,328.4678 z" stroke="#C8A700" stroke-width="1.44" fill-opacity="0" />
  <path d="M47.22384,50.27039 L216.3795,50.27039 L216.3795,558.0447 L47.22384,558.0447 z" stroke="#008400" stroke-width="1.44" fill-opacity="0" />
  <path d="M55.68166,549.5819 L207.9218,549.5819 L207.9218,58.73331 L55.68166,58.73331 z" stroke="#840000" stroke-width="1.44" fill-opacity="0" />
  <path d="M224.8373,50.27042 L284.0418,50.27042 L284.0418,295.6947 L224.8373,295.6947 z" stroke="#008484" stroke-width="1.44" fill-opacity="0" />
  <path d="M55.68166,558.0448 L55.68166,566.5077 L783.051,566.5077 L783.051,41.80751 L55.68166,41.80751 L55.68166,50.27042" stroke="#693484" stroke-width="1.44" fill-opacity="0" />
  <path d="M199.4639,549.5819 L199.4639,304.1576 L64.13943,304.1576 L64.13943,549.5819" stroke="#000000" stroke-width="1.44" fill-opacity="0" />
  <path d="M64.13943,295.6947 L199.4639,295.6947 L199.4639,67.19622 L64.13943,67.19622 z" stroke="#000000" stroke-width="1.44" fill-opacity="0" />
  <path d="M233.295,151.8253 L275.584,151.8253 L275.584,109.5108 L233.295,109.5108 z" stroke="#000000" stroke-width="1.44" fill-opacity="0" />
  <path d="M233.295,202.6027 L275.584,202.6027 L275.584,160.2882 L233.295,160.2882 z" stroke="#000000" stroke-width="1.44" fill-opacity="0" />
  <path d="M233.295,101.0479 L275.584,101.0479 L275.584,58.73331 L233.295,58.73331 z" stroke="#000000" stroke-width="1.44" fill-opacity="0" />
  <path d="M320.4102,515.7303 L207.9218,515.7303" stroke="#840000" stroke-width="1.44" fill-opacity="0" />
  <path d="M320.4102,431.1012 L216.3796,431.1012" stroke="#008400" stroke-width="1.44" fill-opacity="0" />
</svg>
